HIERARCHY
ROOT SpineBase
{
  OFFSET 0.000000 0.000000 0.000000
  CHANNELS 6 Xposition Yposition Zposition Zrotation Xrotation Yrotation
  JOINT SpineMid
  {
    OFFSET -0.000000 32.176504 -0.000000
    CHANNELS 3 Zrotation Xrotation Yrotation
    JOINT SpineShoulder
    {
      OFFSET -0.272638 23.986902 -0.819529
      CHANNELS 3 Zrotation Xrotation Yrotation
      JOINT Neck
      {
        OFFSET -0.184230 7.961616 -0.610723
        CHANNELS 3 Zrotation Xrotation Yrotation
        JOINT Head
        {
          OFFSET -6.489582 11.477390 5.943550
          CHANNELS 3 Zrotation Xrotation Yrotation
          End Site
          {
            OFFSET 0 0 0
          }
        }
      }
      JOINT ShoulderLeft
      {
        OFFSET -5.102100 -4.282266 13.322850
        CHANNELS 3 Zrotation Xrotation Yrotation
        JOINT ElbowLeft
        {
          OFFSET -5.676385 -22.217808 0.761853
          CHANNELS 3 Zrotation Xrotation Yrotation
          JOINT WristLeft
          {
            OFFSET -13.696971 -17.114687 -9.161195
            CHANNELS 3 Zrotation Xrotation Yrotation
            JOINT HandLeft
            {
              OFFSET -4.465336 -5.787647 -2.622165
              CHANNELS 3 Zrotation Xrotation Yrotation
              JOINT HandTipLeft
              {
                OFFSET 0.413349 5.000606 0.318589
                CHANNELS 3 Zrotation Xrotation Yrotation
                End Site
                {
                  OFFSET 0 0 0
                }
              }
              JOINT ThumbLeft
              {
                OFFSET 0.280420 -1.772190 -4.752002
                CHANNELS 3 Zrotation Xrotation Yrotation
                End Site
                {
                  OFFSET 0 0 0
                }
              }
            }
          }
        }
      }
      JOINT ShoulderRight
      {
        OFFSET 3.644002 -2.946935 -14.533016
        CHANNELS 3 Zrotation Xrotation Yrotation
        JOINT ElbowRight
        {
          OFFSET -11.763437 -21.827986 -3.107307
          CHANNELS 3 Zrotation Xrotation Yrotation
          JOINT WristRight
          {
            OFFSET -4.788390 -21.220506 5.625807
            CHANNELS 3 Zrotation Xrotation Yrotation
            JOINT HandRight
            {
              OFFSET 4.079707 -4.722083 5.655147
              CHANNELS 3 Zrotation Xrotation Yrotation
              JOINT HandTipRight
              {
                OFFSET 0.237472 -4.716732 0.866471
                CHANNELS 3 Zrotation Xrotation Yrotation
                End Site
                {
                  OFFSET 0 0 0
                }
              }
              JOINT ThumbRight
              {
                OFFSET -1.388455 4.264475 -1.588418
                CHANNELS 3 Zrotation Xrotation Yrotation
                End Site
                {
                  OFFSET 0 0 0
                }
              }
            }
          }
        }
      }
    }
  }
  JOINT HipLeft
  {
    OFFSET -3.366817 -0.170105 5.117187
    CHANNELS 3 Zrotation Xrotation Yrotation
    JOINT KneeLeft
    {
      OFFSET -1.354924 -31.735697 1.741054
      CHANNELS 3 Zrotation Xrotation Yrotation
      JOINT AnkleLeft
      {
        OFFSET 15.004120 -41.385256 2.159676
        CHANNELS 3 Zrotation Xrotation Yrotation
        JOINT FootLeft
        {
          OFFSET -2.413785 -7.914219 -4.429008
          CHANNELS 3 Zrotation Xrotation Yrotation
          End Site
          {
            OFFSET 0 0 0
          }
        }
      }
    }
  }
  JOINT HipRight
  {
    OFFSET 1.255022 2.353110 -12.807391
    CHANNELS 3 Zrotation Xrotation Yrotation
    JOINT KneeRight
    {
      OFFSET 4.298369 -36.992398 1.258756
      CHANNELS 3 Zrotation Xrotation Yrotation
      JOINT AnkleRight
      {
        OFFSET 7.946955 -40.216940 5.110411
        CHANNELS 3 Zrotation Xrotation Yrotation
        JOINT FootRight
        {
          OFFSET -10.894715 -3.692538 -6.194850
          CHANNELS 3 Zrotation Xrotation Yrotation
          End Site
          {
            OFFSET 0 0 0
          }
        }
      }
    }
  }
}
MOTION
Frames: 6
Frame Time: 0.033333
94.943957 82.242362 345.924311 0.855412 -0.057057 76.849036 -0.642424 -0.007173 -76.827212 0.234350 -0.699280 0.028582 -2.507307 2.584400 1.512599 0.000000 0.000000 0.000000 2.126803 -0.751411 0.608420 2.019430 -3.298124 1.142543 0.167512 0.010075 0.173648 -5.134997 5.558054 -1.622193 0.000000 0.000000 0.000000 0.000000 0.000000 0.000000 1.098471 -1.145534 1.051171 48.848239 11.189584 5.405187 -60.361711 33.247132 4.759367 53.904231 -38.161164 21.869771 0.000000 0.000000 0.000000 0.000000 0.000000 0.000000 -2.334478 -1.031942 -76.668821 -1.273355 1.272915 -0.621154 -1.902690 11.566344 -1.387983 0.000000 0.000000 0.000000 -1.596961 -0.851941 -77.012255 -0.939784 0.442522 -0.041873 -0.290846 0.906836 1.408683 0.000000 0.000000 0.000000
94.844022 82.320663 346.015518 0.770684 -0.214173 76.618633 -0.478387 -0.031031 -76.598225 0.264833 -0.640236 0.030494 -2.589272 2.228074 1.380111 0.000000 0.000000 0.000000 2.057888 -0.677277 0.570333 2.084891 -3.427404 1.185075 0.167656 0.009602 0.173982 -5.134961 5.557897 -1.622103 0.000000 0.000000 0.000000 0.000000 0.000000 0.000000 1.079086 -1.160111 1.029495 52.875302 12.284455 5.387167 -64.116702 28.602860 -4.350743 50.419835 -30.093212 20.136508 0.000000 0.000000 0.000000 0.000000 0.000000 0.000000 -1.908381 -0.674295 -76.466270 -0.615208 0.694269 -0.675296 -3.642179 10.958757 -0.184334 0.000000 0.000000 0.000000 -1.191239 -0.835781 -76.755077 -0.849429 0.218764 -0.059130 -0.363745 0.927415 1.284580 0.000000 0.000000 0.000000
94.750551 82.318947 346.184432 0.695324 -0.456741 76.424319 -0.272470 -0.065138 -76.404646 0.295362 -0.523342 0.034013 -2.809014 1.879879 1.313932 0.000000 0.000000 0.000000 1.953483 -0.618512 0.531769 2.155530 -3.551642 1.226145 0.167583 0.009220 0.174371 -5.134920 5.557722 -1.622003 0.000000 0.000000 0.000000 0.000000 0.000000 0.000000 1.080267 -1.210307 1.013002 53.683150 12.377746 5.510546 -65.687106 26.982758 -8.231580 48.039333 -24.634285 19.076521 0.000000 0.000000 0.000000 0.000000 0.000000 0.000000 -1.594192 -0.262818 -76.295118 0.120372 0.521483 -0.648001 -6.020916 9.505460 1.472926 0.000000 0.000000 0.000000 -0.674477 -0.778167 -76.529725 -0.757215 -0.075111 -0.086691 -0.428411 0.977730 1.177345 0.000000 0.000000 0.000000
94.686425 82.446740 346.291607 0.682894 -0.594759 76.235334 -0.143512 -0.052283 -76.215628 0.301032 -0.441485 0.035704 -2.919248 1.551371 1.215042 0.000000 0.000000 0.000000 1.873712 -0.585966 0.500778 2.226223 -3.655301 1.260661 0.167321 0.008887 0.174836 -5.134889 5.557644 -1.621965 0.000000 0.000000 0.000000 0.000000 0.000000 0.000000 1.054244 -1.250604 0.996746 59.179135 13.670894 5.508292 -72.680181 22.783504 -18.339500 38.842353 -12.378579 16.781372 0.000000 0.000000 0.000000 0.000000 0.000000 0.000000 -1.622733 0.096722 -76.115950 0.615219 0.518358 -0.663860 -5.895263 9.203807 1.447501 0.000000 0.000000 0.000000 -0.399298 -0.654191 -76.324138 -0.595768 -0.238355 -0.093956 -0.507507 1.006390 1.082589 0.000000 0.000000 0.000000
94.658541 82.547972 346.325809 0.696899 -0.663785 76.047748 -0.039723 -0.074988 -76.025983 0.298941 -0.364919 0.039797 -3.258793 1.157923 1.189094 0.000000 0.000000 0.000000 1.746819 -0.556623 0.459337 2.296632 -3.786062 1.304118 0.166931 0.008601 0.175339 -5.134869 5.557612 -1.621953 0.000000 0.000000 0.000000 0.000000 0.000000 0.000000 1.054662 -1.280454 0.943841 62.366278 14.209315 5.763854 -76.684870 18.799753 -24.316362 29.942751 -5.182772 15.868251 0.000000 0.000000 0.000000 0.000000 0.000000 0.000000 -1.840370 0.386398 -75.928666 0.915073 0.615579 -0.704206 -4.762491 8.159745 1.114471 0.000000 0.000000 0.000000 -0.357392 -0.549585 -76.138870 -0.450640 -0.260857 -0.088901 -0.555360 1.050989 0.998698 0.000000 0.000000 0.000000
94.584750 82.709724 346.308179 0.731603 -0.631819 75.828758 -0.005390 -0.112124 -75.804007 0.260179 -0.325389 0.041873 -3.112864 1.240387 1.181474 0.000000 0.000000 0.000000 1.615608 -0.505854 0.414188 2.390528 -3.930664 1.352471 0.166143 0.008159 0.176232 -5.134833 5.557627 -1.621981 0.000000 0.000000 0.000000 0.000000 0.000000 0.000000 1.032214 -1.419441 0.963745 65.052003 14.980079 5.467358 -80.093383 16.039119 -28.481676 24.062028 1.254859 16.515768 0.000000 0.000000 0.000000 0.000000 0.000000 0.000000 -2.205474 0.439336 -75.697321 0.896225 0.917364 -0.722639 -2.318201 9.170669 -0.592975 0.000000 0.000000 0.000000 -0.496600 -0.513610 -75.931276 -0.361655 -0.193178 -0.076293 -0.750696 1.429128 0.196950 0.000000 0.000000 0.000000
